<svg width="1024" height="1024" viewBox="0 0 1024 1024" fill="none" xmlns="http://www.w3.org/2000/svg">
  <g transform="translate(325 171) scale(22)">
      <path d="M5 27.7L5.022 27.679" stroke="#F18E15" stroke-width="6.5" stroke-linecap="round" />
      <path d="M5 27.7L5.022 27.679" stroke="#EB0F12" stroke-width="5.6" stroke-linecap="round" />
      <path d="M5 27.7L5.022 27.679" stroke="#1040FE" stroke-width="5.3" stroke-linecap="round" />
      <path d="M5 27.7V27.679" stroke="#FEE010" stroke-width="4.44" stroke-linecap="round" />
      <path d="M5 27.7V27.679" stroke="#F18E15" stroke-width="3.44" stroke-linecap="round" />
      <path d="M9.57495 13.66L12.686 10.848" stroke="#F18E15" stroke-width="6.44" stroke-linecap="round" />
      <path d="M9.48486 13.724L12.6449 10.793" stroke="#EB0F12" stroke-width="5.7" stroke-linecap="round" />
      <path d="M9.48486 13.724L12.6449 10.793" stroke="#1040FE" stroke-width="5.44" stroke-linecap="round" />
      <path d="M9.48486 13.724L12.6449 10.793" stroke="#FEE010" stroke-width="4.44" stroke-linecap="round" />
      <path d="M9.59985 13.664L12.6639 10.817" stroke="#F18E15" stroke-width="3.44" stroke-linecap="round" />
      <path d="M13.182 8.86193L11.22 4.98193" stroke="#F18E15" stroke-width="6.44" stroke-linecap="round" />
      <path d="M13.2241 8.97194L11.1641 5.01794" stroke="#EB0F12" stroke-width="5.7" stroke-linecap="round" />
      <path d="M13.2241 8.97194L11.1641 5.01794" stroke="#1040FE" stroke-width="5.44" stroke-linecap="round" />
      <path d="M13.2241 8.97194L11.1641 5.01794" stroke="#FEE010" stroke-width="4.44" stroke-linecap="round" />
      <path d="M13.1899 8.83498L11.1899 5.00098" stroke="#F18E15" stroke-width="3.44" stroke-linecap="round" />
      <path d="M5.2019 19.104L5.2549 14.656" stroke="#F18E15" stroke-width="6.44" stroke-linecap="round" />
      <path d="M5.18799 19.221L5.18999 14.656" stroke="#EB0F12" stroke-width="5.7" stroke-linecap="round" />
      <path d="M5.18799 19.221L5.18999 14.656" stroke="#1040FE" stroke-width="5.44" stroke-linecap="round" />
      <path d="M5.18799 19.221L5.18999 14.656" stroke="#FEE010" stroke-width="4.44" stroke-linecap="round" />
      <path d="M5.21997 19.085V14.656" stroke="#F18E15" stroke-width="3.44" stroke-linecap="round" />
      <path d="M7.23597 3.62397L3.21997 3.56396" stroke="#F18E15" stroke-width="6.44" stroke-linecap="round" />
      <path d="M7.34297 3.63896L3.21997 3.63696" stroke="#EB0F12" stroke-width="5.7" stroke-linecap="round" />
      <path d="M7.34297 3.63896L3.21997 3.63696" stroke="#1040FE" stroke-width="5.44" stroke-linecap="round" />
      <path d="M7.34297 3.63896L3.21997 3.63696" stroke="#FEE010" stroke-width="4.44" stroke-linecap="round" />
      <path d="M7.21997 3.604H3.21997" stroke="#F18E15" stroke-width="3.44" stroke-linecap="round" />
  </g>
</svg>
